<svg id="Layer_1" data-name="Layer 1" xmlns="http://www.w3.org/2000/svg" viewBox="0 0 375 274"><defs><style>.cls-1{fill:#893101;}.cls-2{fill:#f98228;}.cls-3{fill:#c0bfbf;}.cls-4{fill:#5e1410;}.cls-5{fill:none;}</style></defs><title>foodielogo</title><path class="cls-1" d="M1104.67,680.38h-76.21a15.29,15.29,0,1,1-17.64-1.11l-35.1-98.36H956.28a8.39,8.39,0,0,1-8.08-11l-21.27,4.53,33.86,158.63,142.37-30.38a15.25,15.25,0,0,1,1.51-22.33Z" transform="translate(-879 -499)"/><polygon class="cls-1" points="234.24 101.71 121.64 101.71 137.33 146.54 210.27 141.68 234.24 101.71"/><path class="cls-2" d="M1209.76,637.43l-8.25-38.64-8.25-38.64-72-27.15L976.3,563.94h5.44a8.47,8.47,0,0,1,8,5.7h0l4.94,14.12h131.67a8.46,8.46,0,0,1,7.73,12h0l-31.45,56.59h0a8.48,8.48,0,0,1-7.18,5h0l-73.33,4.89,2.79,6.89h79.85c8.85,0,16.11,1.74,16.9,9.83a15.28,15.28,0,0,1,7.87,13.36,15,15,0,0,1-.86,5l26.39-5.63Zm-36.2-47a12.48,12.48,0,1,1-9.6,14.81A12.48,12.48,0,0,1,1173.56,590.44Z" transform="translate(-879 -499)"/><polygon class="cls-3" points="81.79 234.09 318.13 234.09 211.77 225.12 123.2 225.12 81.79 234.09"/><path class="cls-4" d="M1032.41,685.25h68.31a15.41,15.41,0,0,1,4-4.86h-76.21A15.14,15.14,0,0,1,1032.41,685.25Z" transform="translate(-879 -499)"/><path class="cls-4" d="M948.2,569.93a8.39,8.39,0,0,0,8.08,11h19.44l35.1,98.36a15.42,15.42,0,0,0-3.46,3l-34.43-96.47H953.49c-4.69,0-7.52-3.9-8.49-8.49C944.52,575,945.46,570.47,948.2,569.93Z" transform="translate(-879 -499)"/><path class="cls-4" d="M1016.06,712.39a15.28,15.28,0,0,0,14.41-10.24,15.24,15.24,0,0,1-26-14.9,15.13,15.13,0,0,0-3.66,9.86A15.29,15.29,0,0,0,1016.06,712.39Z" transform="translate(-879 -499)"/><polygon class="cls-4" points="234.24 101.71 121.64 101.71 123.34 106.58 231.33 106.58 234.24 101.71"/><rect class="cls-5" width="375" height="274"/></svg>